#!OML:ASF H:\Terrain\Patient Classification 1\Walking\steve\steve.ASF
:FULLY-SPECIFIED
:DEGREES
16
root 6.79819 15.3061 -34.8536 7.462 -3.50014 2.17965
lowerback 0.34154 -0.231299 -4.40395
upperback -3.11046 -0.401603 0.172173
thorax -3.36802 -0.0745881 2.65889
lowerneck -9.54291 0.135712 -2.13315
upperneck 15.5132 0.164046 2.18227
head 6.27373 0.12702 1.05925
rclavicle 2.2503e-015 -7.95139e-016
rhumerus -61.6243 -19.0087 -62.8695
rradius 17.0097
rwrist 24.3838
rhand -14.7513 -33.5317
rfingers 7.12502
rthumb 11.4046 -63.2015
lclavicle 2.2503e-015 -7.95139e-016
lhumerus -8.49309 -10.7438 86.3878
lradius 36.2022
lwrist 28.8415
lhand -24.1793 -11.542
lfingers 7.12502
lthumb 2.30424 18.4253
rfemur -43.1782 2.86234 20.9904
rtibia 42.8251
rfoot -17.8905 -0.830568
rtoes -10.9801
lfemur -2.9873 1.67478 -27.4208
ltibia 22.9347
lfoot -19.6819 -7.87086
ltoes 6.12383
17
root 6.78491 15.3062 -34.612 7.68918 -2.97418 2.41034
lowerback 0.114914 -0.433316 -4.61398
upperback -3.21359 -0.66721 0.153652
thorax -3.32522 -0.200782 2.76409
lowerneck -9.52948 0.144272 -2.23231
upperneck 15.5927 0.136043 2.50894
head 6.29637 0.1335 1.17786
rclavicle -7.20129e-015 1.2424e-014
rhumerus -63.2622 -19.703 -60.7636
rradius 16.7901
rwrist 25.5701
rhand -15.0029 -32.5207
rfingers 7.12502
rthumb 11.162 -62.2038
lclavicle -7.20129e-015 1.2424e-014
lhumerus -7.07798 -11.8251 85.7959
lradius 37.2225
lwrist 30.1299
lhand -24.7619 -10.1141
lfingers 7.12502
lthumb 1.74152 19.8585
rfemur -43.7363 2.84322 20.6949
rtibia 40.0851
rfoot -17.8233 -0.500415
rtoes -8.47427
lfemur -1.64886 2.3392 -27.3887
ltibia 21.5319
lfoot -18.8409 -8.62615
ltoes 4.22106
18
root 6.78205 15.2993 -34.3748 7.9098 -2.3736 2.46805
lowerback 0.0401082 -0.630203 -4.5356
upperback -3.37396 -0.929412 0.134933
thorax -3.4291 -0.329047 2.70824
lowerneck -9.37968 0.127526 -2.26954
upperneck 15.4907 0.0720204 2.78516
head 6.239 0.121302 1.26555
rclavicle -7.04288e-015 -1.05356e-014
rhumerus -64.973 -20.4127 -58.6227
rradius 16.5486
rwrist 27.282
rhand -15.9758 -32.1226
rfingers 7.12502
rthumb 10.2235 -61.8541
lclavicle -7.04288e-015 -1.05356e-014
lhumerus -5.7446 -12.8871 85.0579
lradius 38.1582
lwrist 31.2234
lhand -24.7478 -9.64052
lfingers 7.12502
lthumb 1.75517 20.332
rfemur -44.3515 1.99936 20.897
rtibia 37.6459
rfoot -17.5567 0.542701
rtoes -7.56852
lfemur -0.288779 2.9952 -27.1364
ltibia 20.095
lfoot -17.9086 -9.68853
ltoes 3.08285
19
root 6.78253 15.2792 -34.1385 7.93622 -1.89097 2.70312
lowerback -0.0506611 -0.778611 -4.79222
upperback -3.34226 -1.12474 0.203289
thorax -3.32471 -0.421031 2.92627
lowerneck -9.18785 0.119841 -2.36834
upperneck 15.1308 0.066694 2.86566
head 6.09185 0.118019 1.30381
rclavicle -1.47411e-014 -6.16232e-015
rhumerus -66.3472 -20.6645 -56.9963
rradius 16.3444
rwrist 29.0308
rhand -16.5677 -30.4652
rfingers 7.12502
rthumb 9.65248 -60.2241
lclavicle -1.47411e-014 -6.16232e-015
lhumerus -4.35692 -13.6276 84.524
lradius 39.237
lwrist 31.9952
lhand -24.7067 -9.78822
lfingers 7.12502
lthumb 1.7948 20.184
rfemur -44.8605 1.28101 20.9119
rtibia 35.4305
rfoot -17.0519 1.40055
rtoes -8.02747
lfemur 1.35737 3.30986 -27.1303
ltibia 18.5389
lfoot -17.0232 -10.5676
ltoes 3.40634
20
root 6.78134 15.24 -33.8962 7.94419 -1.40475 2.64689
lowerback -0.373513 -0.918929 -4.69705
upperback -3.1749 -1.28502 0.333411
thorax -2.95337 -0.51399 3.00308
lowerneck -9.1733 0.0129224 -2.54711
upperneck 14.8257 -0.0390558 2.82226
head 5.99617 0.0533018 1.30918
rclavicle 5.22742e-015 2.40529e-014
rhumerus -67.0914 -20.2514 -56.8764
rradius 16.6642
rwrist 28.0437
rhand -17.8358 -30.7698
rfingers 7.12502
rthumb 8.42883 -60.5816
lclavicle 5.22742e-015 2.40529e-014
lhumerus -2.60443 -14.4649 83.8967
lradius 39.8935
lwrist 32.8936
lhand -24.8345 -9.71026
lfingers 7.12502
lthumb 1.67145 20.2629
rfemur -45.3722 1.08717 21.0065
rtibia 33.4105
rfoot -16.6847 2.40746
rtoes -7.09683
lfemur 3.21363 3.32408 -26.8314
ltibia 16.8442
lfoot -15.7777 -11.5909
ltoes 6.78093
21
root 6.77844 15.2001 -33.6546 8.04528 -0.818896 2.47742
lowerback -0.613893 -1.11674 -4.33618
upperback -3.14173 -1.53153 0.330727
thorax -2.76933 -0.651531 2.79617
lowerneck -9.11112 -0.0357546 -2.52068
upperneck 14.7248 -0.122205 2.90488
head 5.95597 0.0201979 1.32368
rclavicle 3.07806e-015 3.57812e-015
rhumerus -67.7246 -19.6343 -57.5501
rradius 17.3467
rwrist 25.3732
rhand -17.8101 -32.6125
rfingers 7.12502
rthumb 8.45361 -62.4233
lclavicle 3.07806e-015 3.57812e-015
lhumerus -0.929877 -15.0486 83.0372
lradius 40.3186
lwrist 33.4636
lhand -24.7076 -9.86419
lfingers 7.12502
lthumb 1.79394 20.108
rfemur -45.9455 0.858686 21.2342
rtibia 31.5898
rfoot -16.3845 3.37807
rtoes -5.60737
lfemur 5.05832 3.15957 -26.3851
ltibia 14.9278
lfoot -14.235 -12.558
ltoes 10.5571
22
root 6.77067 15.1741 -33.417 8.15742 -0.210796 2.76959
lowerback -0.735285 -1.32132 -4.4994
upperback -3.16235 -1.80297 0.22397
thorax -2.69977 -0.785803 2.77805
lowerneck -8.9679 0.0237591 -2.2795
upperneck 14.5942 -0.0841608 2.94033
head 5.88903 0.0534806 1.29672
rclavicle -2.36678e-015 -2.13694e-014
rhumerus -68.4944 -19.2319 -57.7921
rradius 17.7626
rwrist 23.7506
rhand -17.3312 -35.1215
rfingers 7.12502
rthumb 8.91572 -64.9131
lclavicle -2.36678e-015 -2.13694e-014
lhumerus 0.491543 -15.1236 82.4231
lradius 40.9993
lwrist 33.4883
lhand -24.5465 -9.9082
lfingers 7.12502
lthumb 1.94954 20.0626
rfemur -46.5472 0.470258 21.0125
rtibia 29.9777
rfoot -16.1424 4.07659
rtoes -4.87907
lfemur 6.89731 3.00009 -26.4172
ltibia 12.7997
lfoot -13.1143 -12.7497
ltoes 10.1048
23
root 6.76642 15.1389 -33.1779 8.25176 0.348927 3.4291
lowerback -0.887925 -1.54363 -5.03024
upperback -3.12939 -2.09758 0.0869478
thorax -2.54512 -0.926198 2.93142
lowerneck -8.99359 0.093493 -2.0641
upperneck 14.4572 -0.00705735 2.86373
head 5.84855 0.0969537 1.24203
rclavicle 3.57502e-015 -8.74653e-015
rhumerus -69.241 -18.9124 -57.6215
rradius 17.9344
rwrist 22.9487
rhand -17.255 -35.8554
rfingers 7.12502
rthumb 8.98926 -65.6439
lclavicle 3.57502e-015 -8.74653e-015
lhumerus 2.01049 -15.2533 81.7938
lradius 41.5389
lwrist 33.5883
lhand -24.3462 -10.0083
lfingers 7.12502
lthumb 2.14302 19.9607
rfemur -47.3539 -0.439075 20.732
rtibia 28.774
rfoot -15.8112 4.28454
rtoes -8.03133
lfemur 9.25359 2.20238 -26.9609
ltibia 9.75258
lfoot -11.9928 -12.0034
ltoes 9.00258
24
root 6.7721 15.0815 -32.9333 8.18969 0.987259 4.24904
lowerback -0.805983 -1.81167 -5.57752
upperback -3.11615 -2.46877 -0.138628
thorax -2.53548 -1.10175 3.00922
lowerneck -8.96478 0.12404 -1.82517
upperneck 14.3711 0.0237741 2.70527
head 5.81617 0.112668 1.15432
rclavicle 1.63811e-014 -5.96354e-015
rhumerus -70.2005 -18.6583 -57.141
rradius 17.9562
rwrist 22.9605
rhand -17.7032 -34.5289
rfingers 7.12502
rthumb 8.55676 -64.3355
lclavicle 1.63811e-014 -5.96354e-015
lhumerus 3.34403 -15.4643 81.0181
lradius 42.0718
lwrist 33.7637
lhand -24.1039 -9.78179
lfingers 7.12502
lthumb 2.377 20.1847
rfemur -48.0807 -2.27525 20.9674
rtibia 27.7997
rfoot -15.5081 4.41287
rtoes -17.503
lfemur 12.6926 1.34355 -27.766
ltibia 5.07933
lfoot -10.4139 -10.8279
ltoes 6.4631
25
root 6.77792 15.0824 -32.6907 8.14227 1.6738 4.70113
lowerback -0.629513 -2.054 -5.80287
upperback -3.13529 -2.80864 -0.225115
thorax -2.61844 -1.26423 3.05491
lowerneck -8.85185 0.113816 -1.60705
upperneck 14.1198 0.0203324 2.44101
head 5.71861 0.101967 1.03309
rclavicle 2.33696e-014 1.53064e-014
rhumerus -71.0685 -18.08 -57.2012
rradius 17.9114
rwrist 23.2646
rhand -18.732 -32.6335
rfingers 7.12502
rthumb 7.56388 -62.4783
lclavicle 2.33696e-014 1.53064e-014
lhumerus 4.4348 -15.5503 80.4004
lradius 42.7612
lwrist 33.8873
lhand -24.3075 -9.60372
lfingers 7.12502
lthumb 2.18042 20.3649
rfemur -48.4929 -2.29552 19.9332
rtibia 27.0031
rfoot -15.7591 4.95186
rtoes -14.5951
lfemur 16.265 0.504666 -28.2525
ltibia 5.08889e-014
lfoot -8.69779 -9.40146
ltoes 2.38615
26
root 6.76604 15.0564 -32.4437 8.25098 2.04516 4.82775
lowerback -0.573759 -2.19029 -6.08907
upperback -3.2274 -2.99742 -0.0680854
thorax -2.7072 -1.34466 3.38249
lowerneck -8.70382 0.133003 -1.79357
upperneck 13.7543 0.0803059 2.42553
head 5.57748 0.118948 1.06098
rclavicle -3.7415e-014 -1.07344e-014
rhumerus -71.5202 -16.9273 -58.2925
rradius 18.2601
rwrist 21.6186
rhand -18.9858 -31.9473
rfingers 7.12502
rthumb 7.31889 -61.8007
lclavicle -3.7415e-014 -1.07344e-014
lhumerus 5.46871 -15.4204 80.0939
lradius 43.2715
lwrist 33.9097
lhand -24.3435 -10.1071
lfingers 7.12502
lthumb 2.14558 19.8618
rfemur -49.011 -1.90829 19.4082
rtibia 26.1132
rfoot -15.9289 4.75106
rtoes -14.5654
lfemur 17.0607 -0.0518301 -28.2279
ltibia -3.18055e-014
lfoot -7.86686 -9.71428
ltoes 8.81593
27
root 6.73404 15.0124 -32.1908 8.09601 2.15469 4.75015
lowerback -0.390415 -2.20971 -6.37899
upperback -3.21808 -3.03579 0.113889
thorax -2.77482 -1.35192 3.74068
lowerneck -8.52534 0.142396 -2.0315
upperneck 13.3652 0.109041 2.57607
head 5.42448 0.130111 1.14669
rclavicle 9.69075e-015 -8.74653e-015
rhumerus -71.853 -15.9061 -59.6253
rradius 19.0073
rwrist 18.0563
rhand -18.0787 -33.1846
rfingers 7.12502
rthumb 8.19434 -63.0057
lclavicle 9.69075e-015 -8.74653e-015
lhumerus 6.50646 -15.1726 79.8539
lradius 43.687
lwrist 33.6012
lhand -23.6072 -10.3934
lfingers 7.12502
lthumb 2.8567 19.5673
rfemur -49.1257 -1.17519 19.1896
rtibia 25.3004
rfoot -16.1644 5.55139
rtoes -11.2969
lfemur 18.076 -0.320634 -27.8963
ltibia 6.36111e-015
lfoot -6.56249 -10.2117
ltoes 18.9291
28
root 6.75121 14.9913 -31.9521 8.13968 2.86555 4.40783
lowerback -0.307322 -2.351 -5.40054
upperback -3.22987 -3.21709 0.106908
thorax -2.86014 -1.46504 3.19336
lowerneck -8.26122 0.0848248 -2.0016
upperneck 12.8009 0.0278686 2.60499
head 5.2062 0.0917332 1.14129
rclavicle 1.06847e-014 -5.96354e-016
rhumerus -73.0936 -14.8241 -61.5524
rradius 21.6638
rwrist 14.3077
rhand -16.8786 -35.0007
rfingers 7.12502
rthumb 9.35249 -64.7732
lclavicle 1.06847e-014 -5.96354e-016
lhumerus 7.57696 -15.0731 79.5173
lradius 44.1718
lwrist 32.9538
lhand -23.2333 -10.1726
lfingers 7.12502
lthumb 3.21776 19.7829
rfemur -49.2666 -1.60919 19.4938
rtibia 24.4279
rfoot -15.6815 6.99754
rtoes -6.06901
lfemur 18.7247 -1.11781 -27.4661
ltibia -9.54166e-015
lfoot -6.14759 -9.96705
ltoes 19.5826
